<?xml version="1.0" encoding="UTF-8"?>
<svg xmlns="http://www.w3.org/2000/svg" xmlns:xlink="http://www.w3.org/1999/xlink" width="256pt" height="256pt" viewBox="0 0 256 256" version="1.1">
<g id="surface19297904">
<path style=" stroke:none;fill-rule:nonzero;fill:rgb(80%,80%,80%);fill-opacity:1;" d="M 252.050781 128 C 252.050781 59.5 196.5 3.949219 128 3.949219 C 59.5 3.949219 3.949219 59.5 3.949219 128 C 3.949219 196.5 59.5 252.050781 128 252.050781 C 196.5 252.050781 252.050781 196.5 252.050781 128 Z M 252.050781 128 "/>
<path style=" stroke:none;fill-rule:nonzero;fill:rgb(100%,100%,100%);fill-opacity:1;" d="M 196.300781 86.449219 C 193.398438 78.898438 187.449219 80.101562 181 81.398438 C 177.148438 82.199219 160 87.199219 132.949219 115.800781 C 121.699219 127.648438 114.300781 137.101562 109.398438 144.300781 C 106.398438 140.648438 103 136.699219 99.398438 133.148438 C 88.351562 122.101562 76 114.5 75.5 114.199219 C 70.351562 111.050781 63.601562 112.648438 60.398438 117.851562 C 57.25 123 58.851562 129.75 64 132.949219 C 64.101562 133 74.699219 139.550781 83.800781 148.699219 C 93.101562 158 101.550781 170.601562 101.648438 170.75 C 103.699219 173.851562 107.148438 175.648438 110.800781 175.648438 C 111.398438 175.648438 112.050781 175.601562 112.699219 175.5 C 117 174.75 120.398438 171.550781 121.449219 167.351562 C 121.5 167.25 125.851562 155.199219 148.800781 131 C 167.300781 111.449219 179.648438 105.25 183.949219 103.550781 C 184 103.550781 184 103.550781 184.101562 103.550781 C 184.101562 103.550781 184.25 103.5 184.5 103.351562 C 185.25 103.050781 185.648438 102.949219 185.648438 102.949219 C 185.449219 103 185.351562 103 185.351562 103 L 185.351562 102.949219 C 187.351562 102.101562 191.050781 100.5 191.101562 100.449219 C 196.648438 98.050781 198.5 92.050781 196.300781 86.449219 Z M 196.300781 86.449219 "/>
</g>
</svg>
